<?xml version="1.0" encoding="UTF-8" standalone="no"?>
<!-- Created with Inkscape (http://www.inkscape.org/) -->

<svg
   xmlns:dc="http://purl.org/dc/elements/1.1/"
   xmlns:cc="http://creativecommons.org/ns#"
   xmlns:rdf="http://www.w3.org/1999/02/22-rdf-syntax-ns#"
   xmlns:svg="http://www.w3.org/2000/svg"
   xmlns="http://www.w3.org/2000/svg"
   xmlns:sodipodi="http://sodipodi.sourceforge.net/DTD/sodipodi-0.dtd"
   xmlns:inkscape="http://www.inkscape.org/namespaces/inkscape"
   id="svg2"
   version="1.1"
   inkscape:version="0.91 r13725"
   xml:space="preserve"
   width="537.5"
   height="325"
   viewBox="0 0 537.5 325"
   sodipodi:docname="kent.svg"><metadata
     id="metadata8"><rdf:RDF><cc:Work
         rdf:about=""><dc:format>image/svg+xml</dc:format><dc:type
           rdf:resource="http://purl.org/dc/dcmitype/StillImage" /><dc:title></dc:title></cc:Work></rdf:RDF></metadata><defs
     id="defs6" /><sodipodi:namedview
     pagecolor="#ffffff"
     bordercolor="#666666"
     borderopacity="1"
     objecttolerance="10"
     gridtolerance="10"
     guidetolerance="10"
     inkscape:pageopacity="0"
     inkscape:pageshadow="2"
     inkscape:window-width="1366"
     inkscape:window-height="752"
     id="namedview4"
     showgrid="false"
     inkscape:zoom="1.99437"
     inkscape:cx="208.87293"
     inkscape:cy="173.27744"
     inkscape:window-x="0"
     inkscape:window-y="16"
     inkscape:window-maximized="0"
     inkscape:current-layer="g10" /><g
     id="g10"
     inkscape:groupmode="layer"
     inkscape:label="ink_ext_XXXXXX"
     transform="matrix(1.25,0,0,-1.25,0,325)"><g
       id="g12"
       transform="scale(0.1,0.1)"
       style="fill:#db000d;fill-opacity:1;stroke:#000000;stroke-opacity:1;stroke-width:16.8;stroke-miterlimit:4;stroke-dasharray:none"><path
         d="m 20,1300 0,-1280 4260,0 0,2560 -4260,0 0,-1280 z m 1990,995 c -16.26,-17 -20.17,-28.87 -15,-45.5 6.22,-20 8.05,-20.67 16.5,-6 7.25,12.59 18.5,15.08 47.5,10.5 23,-3.63 40.76,-1.66 45,5 3.89,6.11 19,10.55 34,10 16,-0.59 20.89,-3.24 12,-6.5 -8.3,-3.04 -24.83,-16 -37,-29 l -22,-23.5 24,5.88 c 37,9.07 49.09,-4.6 23,-26.01 l -23,-18.87 27,-0.41 c 32,-0.48 46.6,-17.05 21,-23.82 -12.96,-3.43 -11,-5.19 7,-6.27 13.89,-0.83 45,-9.95 70,-20.5 40,-16.89 41.89,-19.05 17,-19.5 -16,-0.29 -30.57,-7.14 -34,-16 -4.38,-11.33 -13,-13.75 -32,-9 l -26,6.5 29,-30.5 c 16.16,-17 37.85,-31.79 49,-33.41 37.04,-5.38 29,-25.88 -13,-33.16 -32,-5.54 -45.8,-2.75 -69,13.98 -32,23.07 -65.81,27.05 -77.09,9.09 -4.86,-7.74 1.09,-8.93 20.09,-4 18.95,4.91 35.5,0.89 55.5,-13.5 16,-11.51 38.37,-20.5 51,-20.5 12,0 19.7,-3.04 16.5,-6.5 -3.38,-3.67 -1.42,-15 4.5,-26 8.02,-14.89 17,-18.2 38,-14 20,4 32.14,-0.09 44.5,-15 16.45,-19.84 16,-20.27 -14,-13.5 -20,4.52 -36.32,2.57 -46,-5.5 -12.22,-10.18 -20,-8.7 -42,8 -15,11.39 -26.33,24.28 -25.5,29 0.81,4.59 -13,9.42 -30,10.5 l -31.5,2 31,-13.5 c 17.32,-7.54 41.43,-28.5 54.63,-47.5 29.2,-42 38.12,-48 71.37,-48 21,0 28,-4.87 28,-19.5 0,-11 7.63,-23.86 17.5,-29.5 16.08,-9.19 16,-10.04 -1,-10.5 -10.44,-0.28 -20.68,8 -23.5,19 -3.56,13.88 -13.5,19.21 -34.5,18.5 -19,-0.64 -25.05,-3.85 -17,-9 9.46,-6.05 8,-9.7 -6,-15 -17.57,-6.65 -17.5,-7.37 1.5,-14.5 12.46,-4.67 21.7,-19 24.5,-38 l 4.5,-30.5 -24.5,19.5 c -13.36,10.64 -37,19.5 -52,19.5 -18.63,0 -35.89,10 -53.5,31 -14.26,17 -25.87,27.39 -25.72,23 0.47,-13.77 21.72,-36.7 61.72,-66.6 21,-15.69 35.76,-32.43 33,-37.4 -2.61,-4.7 0.5,-12.35 6.5,-16 7,-4.26 8.76,-2.5 4.5,4.5 -3.65,6 -1.98,11.5 3.5,11.5 5.77,0 10.5,-9 10.5,-20 0,-26.96 -39,-26.63 -74,0.62 -35.02,27.26 -33.18,17.38 4.77,-25.62 37.05,-42 37.66,-88.24 1.23,-93.61 -16,-2.36 -20.11,-7.04 -13.5,-15.39 11.86,-15 22,-110.5 10.5,-99 -5.06,5.06 -10.53,23 -12.5,41 -1.97,18 -7,35.28 -11.5,39.5 -4.48,4.2 -4.92,2 -1,-5 4.55,-8.12 0,-12.5 -13,-12.5 -14,0 -18.35,-4.5 -14.5,-15 2.93,-8 1.07,-15 -4,-15 -5.32,0 -7.52,-11 -5,-25 2.52,-14 1.64,-32.48 -2,-42 -4.99,-13.05 -12.19,-5.5 -31,32.5 -13.36,27 -21.62,40.41 -18.16,29.5 19.03,-60 18.69,-61.13 -10.34,-35.1 -15,13.44 -31.95,34.39 -36.5,45.1 -7.52,17.69 -8.56,17 -9,-6 -0.27,-14 8.96,-38 20,-52 20.22,-25.64 20.23,-26.5 1,-62.5 -18.16,-34 -19.81,-34.89 -24,-13 -4.21,22 -4.59,22.13 -6,2 -0.84,-12 5.13,-26.8 13.5,-33.5 12.86,-10.29 15,-9 15,9 0,11.52 8.58,35 19,52 l 19,31 17.5,-33.5 c 9.57,-18.31 47.82,-67.5 84.39,-108.5 98.11,-110 137.59,-165.37 156.84,-220 9.52,-27 26.92,-54.164 38.77,-60.5 11.82,-6.324 45.36,-38.5 74.53,-71.5 82.2,-93 148.15,-111.586 202.24,-57 27.87,28.125 29.48,34 25.73,94 -3.25,52 -1.09,64.84 11.5,68.5 8.43,2.45 -8,4.96 -36,5.5 -36,0.7 -58.57,7.02 -75,21 -16,13.62 -17.91,18.09 -6,14 10,-3.43 17.5,-1.29 17.5,5 0,5.82 -8,11.18 -17,11.38 -22,0.48 -68.75,25.51 -66.54,35.62 0.8,3.63 8.04,11.09 15.04,15.5 10.13,6.38 8.5,8.58 -6.5,8.81 -36,0.56 -48.06,16.37 -13,17.05 17.93,0.35 54,3.89 79,7.75 50.34,7.79 51.76,6.89 109.27,-69.11 31.03,-41 38.1,-62.07 16.73,-49.86 -6.58,3.76 1.1,-7.14 17,-24.14 21.52,-23 27.71,-37.582 24,-56.5 -2.75,-14 -0.94,-25.5 4,-25.5 11,0 11.75,-33.246 1,-44 -4.8,-4.801 -8.11,-10.801 -8.27,-15 -0.81,-21 -31.6,-71 -43.73,-71 -12,0 -12.6,-2.398 -3,-12 14,-14 16.5,-41.852 3,-33.504 -16,9.899 -42.79,-5.766 -36.75,-21.496 4.27,-11.145 1.25,-13.199 -11.75,-8 -10,4 -23.93,7.215 -32.5,7.5 -8.4,0.281 -26,9.738 -40,21.5 -24,20.16 -24.29,20.16 -7.26,0 17.74,-21 22.61,-45.648 11.26,-57 -6.87,-6.875 -40.4,34 -36.91,45 1.02,3.176 -6.09,5.293 -15.09,4.5 -8.95,-0.789 -19.37,-10.5 -22,-20.5 -4.04,-15.363 -10.75,-10 -35,28 -16.59,26 -31.62,42.086 -33.63,36 -5.98,-18.094 -31.37,-10 -31.37,10 0,10 -4.74,21.844 -10,25 -5.6,3.359 -10,17 -10,31 0,14 -3.96,22.578 -9,19.5 -5.04,-3.078 -11.2,0 -14,7 -2.75,6.875 -5.44,3.5 -5.98,-7.5 -1.23,-25.437 -49.02,-97.777 -81.02,-122.668 -37,-28.777 -86.21,-51.918 -112,-52.664 -21,-0.609 -21.3,-1.363 -3.5,-8.668 13,-5.332 15.5,-10.418 7.5,-15.254 C 2132.84,664.16 2138.1,623 2165.76,568 2196.43,507 2191.84,477.332 2149,459.652 2091,435.715 2002.09,371.66 1988.47,344 c -20.19,-41 -46.55,-53.43 -63.62,-30 -12.35,16.945 -13.2,15 -7.85,-18 l 6,-37 -39,6.637 c -52,8.851 -53.2,10.89 -22,37.328 14,11.867 29,32.418 32.5,44.535 3.63,12.547 29.5,37.355 58.5,56.082 108,69.75 122.52,109.848 63.5,175.418 -46.23,51.367 -51.3,62 -76.73,161 -21.06,82 -22.15,138.25 -4.07,210 4.53,18 3.5,21.078 -3.7,11 -8.46,-11.848 -14,-11.461 -36,2.5 -14,8.883 -26,21.117 -26,26.5 0,6 -0.4,13 -1,17.5 -0.55,4.14 -27,21.35 -59,38.39 -81,43.14 -152.66,97.47 -200.66,152.11 -68.5,78 -78.34,109.24 -39.34,124.96 8.14,3.28 -1,3.72 -20,0.97 -52,-7.53 -166.42,22.66 -217,57.25 -50,34.2 -78.52,33.39 -112.4,-3.18 -33.36,-36 -43.81,-82.8 -26.12,-117 14.48,-28 14.35,-30.3 -1.98,-34.5 -13.22,-3.4 -12,-4.75 5,-5.5 17.18,-0.76 22.74,-7.5 23.5,-28.5 0.62,-17 2.72,-20.82 5.5,-10 2.57,10 11.14,17.5 20,17.5 13,0 13.48,-2.42 3,-15 -10.61,-12.73 -10,-14.09 4,-9 12.83,4.67 16.5,0 16.5,-21 0,-21 -3.55,-25.67 -16,-21 -9,3.38 -22.34,6 -30.5,6 -8,0 -11.81,4.48 -8.5,10 3.23,5.38 0,7.92 -7,5.5 -7.29,-2.52 -26.17,13.5 -43,36.5 -16.83,23 -34.17,46.49 -39.5,53.5 -6.23,8.2 -0.03,33.5 18,73.5 15.33,34 34.24,83.57 42.72,112 20.14,67.44 42.78,77.86 120.78,55.57 40,-11.43 75.07,-14.55 113,-10.07 30,3.55 49.32,8.55 42.5,11 -6.73,2.42 -12.5,10.5 -12.5,17.5 0,7.53 -8,10.89 -19,8 -21.81,-5.74 -52.36,39 -71.7,105 -7.32,25 -19.79,44.23 -30.8,47.5 -10,2.97 -16.23,9.18 -13.57,13.5 11.28,18.3 -86.93,-8.25 -122.93,-33.24 -29,-20.12 -49.21,-26.8 -73.5,-24.26 -27,2.82 -32.96,0.2 -30.72,-13.5 3.27,-20 -8.94,-22.84 -25.78,-6 -9,9 -12,9.13 -12,0.5 0,-6 4.78,-14.46 10,-17.7 20,-12.4 -3,-24.8 -46,-24.8 -24,0 -44,2.5 -44,5.5 0,3.08 7.262,16.5 16.5,30.5 11.879,18 22.38,23.46 37.5,19.5 12,-3.14 15.43,-2.93 8,0.5 -16,7.39 -16,24 0,24 6.67,0 28,11.11 48,25 19.57,13.59 57,28.88 82,33.5 25,4.62 66.77,20.6 91.5,35 26,15.14 60.71,26.5 81,26.5 30.29,0 39.02,-5.5 59.5,-37.5 13.44,-21 35.44,-48.06 50,-61.5 18.05,-16.67 26.3,-35 27,-60 0.89,-32 1.82,-33.22 8.43,-11 14.25,48 40.62,88.86 71.57,110.91 16.91,12.05 50.32,52.09 73.5,88.09 23.18,36 60.23,79.18 81.5,95 21,15.62 43.62,34.31 49,40.5 5.3,6.1 21.5,19.48 34.5,28.5 l 24.5,17 -29,0 c -18,0 -39.81,10.43 -57.5,27.5 -19,18.33 -26.27,21.5 -21.8,9.5 6.73,-18.1 -14.7,-23.3 -77.7,-18.84 -15,1.06 -28.39,-4.51 -31.66,-13.16 -6.79,-18 -30.7,-18.53 -45.42,-1 -8.74,10.4 -2.92,15.6 29.08,26 32,10.4 37.85,15.6 29.23,26 -13.25,16 -43.82,19.57 -34.23,4 12.3,-19.93 -41,-10 -59,11 -13.09,15.27 -16.27,30 -11.64,54 7.3,37.88 41.64,55.83 141.64,74.06 33,6.02 83.85,19.26 113,29.44 46,16.06 49.89,19.36 29.5,25 -13,3.6 -32.88,6.5 -44.5,6.5 -35,0 -76.64,38.5 -71.39,66 2.48,13 0.69,20.83 -4.11,18 -4.93,-2.9 -8.5,1.5 -8.5,10.5 0,9 6.29,15.5 15,15.5 8,0 15,-6.53 15,-14 0,-7.41 8,-20.35 17,-27.5 15,-11.91 15.94,-11.73 8,1.5 -7.64,12.73 -6.5,13.03 7.5,2 13.84,-10.9 21.5,-10.45 47.5,2.82 29,14.79 69.15,13.2 70.8,-2.82 3.07,-30 9.83,-45.14 25.2,-56.44 22.51,-16.55 10,-35.69 -24,-36.73 -15,-0.46 -20.33,-2.83 -12,-5.33 8.45,-2.54 30.5,-11.05 50.5,-19.5 24,-10.14 43.11,-12.09 59,-6 20,7.66 21.04,9.89 7,15 -9,3.27 -16.5,1.45 -16.5,-4 0,-6.5 -7,-6.15 -20,1 -11,6.05 -20,17.52 -20,25.5 0,7.78 -5.79,24 -12.5,35 -10.37,17 -9.94,22.12 2.5,30 8,5.07 19.9,7.63 25.5,5.5 6.44,-2.45 8.76,8 6,27 -4.07,28 -2.95,29.5 11.5,15.5 8.42,-8.16 13.63,-24.5 11,-34.5 -2.8,-10.64 -0.38,-30 5.5,-44 l 10.5,-25 -5,27 c -4.38,23.67 -0.5,29.16 31.5,44.5 20,9.59 38.99,26.77 42,38 5.1,19 5.79,19.14 9.5,2 2.26,-10.46 -5.57,-28.5 -18,-41.5 z m 40,-887 c 0,-6 -6,-5.2 -15,2 -8,6.4 -15,13.63 -15,15.5 0,1.87 7,0.93 15,-2 8,-2.93 15,-10.17 15,-15.5 z M 1879,964.453 c 28.04,-23.922 31,-31.953 31,-83.953 0,-32 -7.09,-77.012 -16,-101.5 -8.86,-24.371 -18.9,-73 -22.5,-109 l -6.5,-65 -32.5,2.5 c -18.08,1.391 -66,14.035 -108,28.5 -59,20.316 -85.55,24.469 -121.5,19 -39,-5.934 -45.09,-4.566 -40,9 3.38,9 1.84,16 -3.5,16 -5.32,0 -12.25,-11 -15.75,-25 -6.25,-25 -36.73,-34.402 -48.62,-15 -3.58,5.832 -11.13,10 -18.13,10 -7.2,0 -6,-4 3,-10 13,-8.668 13,-10.066 0,-10.5 -12,-0.398 -11.5,-2.5 2.5,-10.5 10,-5.715 17.5,-14.285 17.5,-20 0,-10 -83.31,-12.687 -93,-3 -10.04,10.043 24,53.695 42,53.855 12,0.11 12.75,2.27 3,8.645 -9.05,5.922 0.5,13.656 31.5,25.5 24,9.168 50.21,23.91 56.89,32 16.35,19.789 59.61,17.645 119.61,-5.93 102,-40.07 126.68,-23.285 114.57,77.93 -14.94,125 -12.03,151.758 19.43,178.781 35.41,30.418 47,30.098 85,-2.328 z m 37,-716.172 c 13.7,-2.218 13,-30.734 -1,-40.996 -11,-8.062 -115,-11.031 -115,-3.285 0,2.691 5.55,17 12.04,31 12.53,27.078 15.96,27.516 103.96,13.281"
         style="fill:#db000d;fill-opacity:1;fill-rule:nonzero;stroke:#000000;stroke-opacity:1;stroke-width:16.8;stroke-miterlimit:4;stroke-dasharray:none"
         id="path14"
         inkscape:connector-curvature="0" /><path
         d="m 2057.5,2233 c 7,-2.8 18,-2.8 25,0 7,2.8 1.5,5 -12.5,5 -14,0 -19.5,-2.2 -12.5,-5"
         style="fill:#db000d;fill-opacity:1;fill-rule:nonzero;stroke:#000000;stroke-opacity:1;stroke-width:16.8;stroke-miterlimit:4;stroke-dasharray:none"
         id="path16"
         inkscape:connector-curvature="0" /><path
         d="m 2023,2213.85 c -6.46,-2.61 -9.71,-10.85 -7.04,-17.85 8.01,-21 -30.21,-60.2 -50.96,-52.27 -16,6.12 -16.71,8.77 -4.5,16.77 12.3,8.06 12,9.5 -2,9.5 -9.31,0 -18.68,-8.5 -21.5,-19.5 -3.57,-13.93 1,-20.31 16,-22.35 25.94,-3.51 43.64,-38.15 55.77,-109.15 8.21,-48 9.34,-49.83 10.23,-16.5 0.61,23 5.83,37.7 13.5,38 7.14,0.29 5,4.79 -5,10.5 -10,5.71 -15.36,13.86 -12.5,19 3,5.4 1,11.47 -5,15.18 -20.86,12.91 -9,25.27 13,13.54 19,-10.12 20.3,-9.67 9.5,3.28 -10,12 -9.5,17.5 2.5,27.5 8,6.67 15,17.63 15,23.5 0,6 -7.05,1 -15.5,-11 -8.45,-12 -21.86,-22 -29.5,-22 -19.79,0 -18.58,6 8.66,43 41.24,56 42.77,64.35 9.34,50.85"
         style="fill:#db000d;fill-opacity:1;fill-rule:nonzero;stroke:#000000;stroke-opacity:1;stroke-width:16.8;stroke-miterlimit:4;stroke-dasharray:none"
         id="path18"
         inkscape:connector-curvature="0" /><path
         d="m 1978,2193 c 7,-2.69 15.77,-2.23 19,1 3.16,3.16 -3,5.53 -13,5 -12,-0.63 -14.21,-2.84 -6,-6"
         style="fill:#db000d;fill-opacity:1;fill-rule:nonzero;stroke:#000000;stroke-opacity:1;stroke-width:16.8;stroke-miterlimit:4;stroke-dasharray:none"
         id="path20"
         inkscape:connector-curvature="0" /><path
         d="m 2077.5,2163 c 7,-2.8 18,-2.8 25,0 7,2.8 1.5,5 -12.5,5 -14,0 -19.5,-2.2 -12.5,-5"
         style="fill:#db000d;fill-opacity:1;fill-rule:nonzero;stroke:#000000;stroke-opacity:1;stroke-width:16.8;stroke-miterlimit:4;stroke-dasharray:none"
         id="path22"
         inkscape:connector-curvature="0" /><path
         d="m 1775,2150 c -18,-8.1 -18.2,-9.05 -2,-9.5 11,-0.3 16.83,-7.3 15,-18 -2.21,-12.89 4.5,-18.42 25.5,-21 l 28.5,-3.5 -21.5,31 c -11.79,17 -22.4,30.77 -23.5,30.5 -1.1,-0.27 -11,-4.55 -22,-9.5"
         style="fill:#db000d;fill-opacity:1;fill-rule:nonzero;stroke:#000000;stroke-opacity:1;stroke-width:16.8;stroke-miterlimit:4;stroke-dasharray:none"
         id="path24"
         inkscape:connector-curvature="0" /><path
         d="m 1563,2094 c 0,-8 7,-13.65 15,-12.11 22,4.24 24.3,23.86 3,25.63 -10,0.82 -18,-5.19 -18,-13.52"
         style="fill:#db000d;fill-opacity:1;fill-rule:nonzero;stroke:#000000;stroke-opacity:1;stroke-width:16.8;stroke-miterlimit:4;stroke-dasharray:none"
         id="path26"
         inkscape:connector-curvature="0" /><path
         d="m 1712.5,2083.5 c 10,-2.57 25,-2.57 35,0 9.5,2.44 1.5,4.5 -17.5,4.5 -19,0 -27,-2.06 -17.5,-4.5"
         style="fill:#db000d;fill-opacity:1;fill-rule:nonzero;stroke:#000000;stroke-opacity:1;stroke-width:16.8;stroke-miterlimit:4;stroke-dasharray:none"
         id="path28"
         inkscape:connector-curvature="0" /><path
         d="m 1839,1992.5 -24,-27.5 27,23.95 c 26,23.07 32.17,31.05 24,31.05 -1.64,0 -13.91,-12.5 -27,-27.5"
         style="fill:#db000d;fill-opacity:1;fill-rule:nonzero;stroke:#000000;stroke-opacity:1;stroke-width:16.8;stroke-miterlimit:4;stroke-dasharray:none"
         id="path30"
         inkscape:connector-curvature="0" /><path
         d="m 2177.5,2008.5 c 7,-7 14.92,-9.86 18,-6.5 3.05,3.33 -2.5,8.89 -12.5,12.5 -14,5.05 -15.22,3.72 -5.5,-6"
         style="fill:#db000d;fill-opacity:1;fill-rule:nonzero;stroke:#000000;stroke-opacity:1;stroke-width:16.8;stroke-miterlimit:4;stroke-dasharray:none"
         id="path32"
         inkscape:connector-curvature="0" /><path
         d="m 1804,1887.5 -19,-22.5 22,18.68 c 21,17.83 27.13,26.32 19,26.32 -1.6,0 -11.87,-10.5 -22,-22.5"
         style="fill:#db000d;fill-opacity:1;fill-rule:nonzero;stroke:#000000;stroke-opacity:1;stroke-width:16.8;stroke-miterlimit:4;stroke-dasharray:none"
         id="path34"
         inkscape:connector-curvature="0" /><path
         d="m 2010,1862 c 0,-15.65 -2.76,-43.5 -6,-60.5 -3.62,-19 -2.03,-31.5 4,-31.5 5.5,0 7.75,9 5,20 -3,12 -0.4,20 6.5,20 6,0 8.63,4.78 5.5,10 -3.39,5.65 4,10.43 17,11 23,1 23,1 -2,9 -14,4.48 -19.06,8.44 -11.5,9 7.45,0.55 11.04,7.5 8,15.5 -3.88,10.23 -0.5,12.88 11.5,9 14,-4.53 14.35,-3.57 2,5.41 -26.09,18.97 -40,13.09 -40,-16.91"
         style="fill:#db000d;fill-opacity:1;fill-rule:nonzero;stroke:#000000;stroke-opacity:1;stroke-width:16.8;stroke-miterlimit:4;stroke-dasharray:none"
         id="path36"
         inkscape:connector-curvature="0" /><path
         d="m 2177.5,1809 c 12.6,-14 19.64,-28.08 16,-32 -3.44,-3.71 1.5,-7 10.5,-7 21,0 21.67,15.9 1,23.85 -9,3.46 -12.94,11.62 -9,18.65 3.92,7 3.48,9.2 -1,5 -4.5,-4.22 -15,-2.25 -24,4.5 -8.96,6.72 -6.1,1 6.5,-13"
         style="fill:#db000d;fill-opacity:1;fill-rule:nonzero;stroke:#000000;stroke-opacity:1;stroke-width:16.8;stroke-miterlimit:4;stroke-dasharray:none"
         id="path38"
         inkscape:connector-curvature="0" /><path
         d="m 2051,1817 c 2.2,-1.65 13,-9.52 24,-17.5 19,-13.77 19.32,-13.62 6.5,3 -7.71,10 -18,17.5 -24,17.5 -6,0 -8.79,-1.29 -6.5,-3"
         style="fill:#db000d;fill-opacity:1;fill-rule:nonzero;stroke:#000000;stroke-opacity:1;stroke-width:16.8;stroke-miterlimit:4;stroke-dasharray:none"
         id="path40"
         inkscape:connector-curvature="0" /><path
         d="m 1769.84,1763 c 0.09,-4.27 4.59,-15 9.66,-23 7.34,-11.59 9.13,-10 7.84,7 -1.5,20 -17.88,34.97 -17.5,16"
         style="fill:#db000d;fill-opacity:1;fill-rule:nonzero;stroke:#000000;stroke-opacity:1;stroke-width:16.8;stroke-miterlimit:4;stroke-dasharray:none"
         id="path42"
         inkscape:connector-curvature="0" /><path
         d="m 1828,1763 c 7,-2.69 15.77,-2.23 19,1 3.16,3.16 -3,5.53 -13,5 -12,-0.63 -14.21,-2.84 -6,-6"
         style="fill:#db000d;fill-opacity:1;fill-rule:nonzero;stroke:#000000;stroke-opacity:1;stroke-width:16.8;stroke-miterlimit:4;stroke-dasharray:none"
         id="path44"
         inkscape:connector-curvature="0" /><path
         d="m 1886,1747.5 c 10.13,-12 25.54,-28.11 33,-34.53 18,-15.46 77.6,-16.13 87.1,-0.97 4.6,7.33 2.9,8.5 -5.1,3.5 -8.84,-5.53 -10.55,0 -6.5,21 l 5.5,28.5 -11,-27.5 c -7.6,-19 -18.42,-27.5 -35,-27.5 -22,0 -64,34.13 -64,52 0,4.18 -5.5,8 -11.5,8 -6.64,0 -3.48,-9.5 7.5,-22.5"
         style="fill:#db000d;fill-opacity:1;fill-rule:nonzero;stroke:#000000;stroke-opacity:1;stroke-width:16.8;stroke-miterlimit:4;stroke-dasharray:none"
         id="path46"
         inkscape:connector-curvature="0" /><path
         d="m 2026.94,1725 c 7.27,-49 13.06,-57.42 13.06,-19 0,16 -4.26,35.72 -9.5,44 -6.41,10.13 -7.57,2 -3.56,-25"
         style="fill:#db000d;fill-opacity:1;fill-rule:nonzero;stroke:#000000;stroke-opacity:1;stroke-width:16.8;stroke-miterlimit:4;stroke-dasharray:none"
         id="path48"
         inkscape:connector-curvature="0" /><path
         d="m 1819,1721.74 c 33,-9.98 38.88,-31.31 9,-32.69 -17,-0.78 -18.3,-2.29 -5,-5.81 28.65,-7.57 21,-33.5 -10,-33.89 -25,-0.31 -26.02,-1.47 -9.5,-10.85 13,-7.38 21.77,-7.23 29.5,0.5 5.96,5.96 22,11 35,11 21,0 22.38,2 11,16 -7.25,8.93 -17.86,25.5 -24,37.5 -6.29,12.29 -21.5,22.36 -35.5,23.5 l -24.5,2 24,-7.26"
         style="fill:#db000d;fill-opacity:1;fill-rule:nonzero;stroke:#000000;stroke-opacity:1;stroke-width:16.8;stroke-miterlimit:4;stroke-dasharray:none"
         id="path50"
         inkscape:connector-curvature="0" /><path
         d="m 2051,1714 c 0.63,-12 2.84,-14.21 6,-6 2.69,7 2.23,15.77 -1,19 -3.16,3.16 -5.53,-3 -5,-13"
         style="fill:#db000d;fill-opacity:1;fill-rule:nonzero;stroke:#000000;stroke-opacity:1;stroke-width:16.8;stroke-miterlimit:4;stroke-dasharray:none"
         id="path52"
         inkscape:connector-curvature="0" /><path
         d="m 2081,1684 c 0.63,-12 2.84,-14.21 6,-6 2.69,7 2.23,15.77 -1,19 -3.16,3.16 -5.53,-3 -5,-13"
         style="fill:#db000d;fill-opacity:1;fill-rule:nonzero;stroke:#000000;stroke-opacity:1;stroke-width:16.8;stroke-miterlimit:4;stroke-dasharray:none"
         id="path54"
         inkscape:connector-curvature="0" /><path
         d="m 2112,1660 c 0,-14 2.2,-19.5 5,-12.5 2.8,7 2.8,18 0,25 -2.8,7 -5,1.5 -5,-12.5"
         style="fill:#db000d;fill-opacity:1;fill-rule:nonzero;stroke:#000000;stroke-opacity:1;stroke-width:16.8;stroke-miterlimit:4;stroke-dasharray:none"
         id="path56"
         inkscape:connector-curvature="0" /><path
         d="m 2072,1615 c 0,-17 2.17,-22.42 5,-12.5 2.86,10 2.86,22.86 0,30 -2.83,7.08 -5,-0.5 -5,-17.5"
         style="fill:#db000d;fill-opacity:1;fill-rule:nonzero;stroke:#000000;stroke-opacity:1;stroke-width:16.8;stroke-miterlimit:4;stroke-dasharray:none"
         id="path58"
         inkscape:connector-curvature="0" /><path
         d="m 1897.5,1623 c 7,-2.8 18,-2.8 25,0 7,2.8 1.5,5 -12.5,5 -14,0 -19.5,-2.2 -12.5,-5"
         style="fill:#db000d;fill-opacity:1;fill-rule:nonzero;stroke:#000000;stroke-opacity:1;stroke-width:16.8;stroke-miterlimit:4;stroke-dasharray:none"
         id="path60"
         inkscape:connector-curvature="0" /><path
         d="m 1810,1612 c 0,-6.29 -7.5,-12.93 -17.5,-15.5 -16,-4.11 -16.04,-4.6 -0.5,-5.7 18,-1.26 34,16.2 24,26.2 -3.27,3.27 -6,1 -6,-5"
         style="fill:#db000d;fill-opacity:1;fill-rule:nonzero;stroke:#000000;stroke-opacity:1;stroke-width:16.8;stroke-miterlimit:4;stroke-dasharray:none"
         id="path62"
         inkscape:connector-curvature="0" /><path
         d="m 1753,1593.2 c -16.71,-6.68 -16,-23.2 1,-23.2 6.93,0 13,7 13,15 0,8 -0.46,14.54 -1,14 -0.58,-0.58 -6,-3 -13,-5.8"
         style="fill:#db000d;fill-opacity:1;fill-rule:nonzero;stroke:#000000;stroke-opacity:1;stroke-width:16.8;stroke-miterlimit:4;stroke-dasharray:none"
         id="path64"
         inkscape:connector-curvature="0" /><path
         d="m 1836,1579 c -15,-11.67 -33.67,-18.33 -42,-15 -8,3.2 -12.2,1.33 -9,-4 6.55,-10.91 53,-8.58 73,3.66 7,4.28 9.29,11.72 5.5,17.84 -4.11,6.63 0.5,8.29 12.5,4.5 10,-3.16 26.11,-1.26 34,4 11.61,7.74 8,10 -16,10 -17,0 -43.2,-9.48 -58,-21"
         style="fill:#db000d;fill-opacity:1;fill-rule:nonzero;stroke:#000000;stroke-opacity:1;stroke-width:16.8;stroke-miterlimit:4;stroke-dasharray:none"
         id="path66"
         inkscape:connector-curvature="0" /><path
         d="m 1919,1573 c -12.45,-16 -12.05,-16.5 3.5,-4.5 10,7.71 17.5,15.21 17.5,17.5 0,8.82 -7.78,4 -21,-13"
         style="fill:#db000d;fill-opacity:1;fill-rule:nonzero;stroke:#000000;stroke-opacity:1;stroke-width:16.8;stroke-miterlimit:4;stroke-dasharray:none"
         id="path68"
         inkscape:connector-curvature="0" /><path
         d="m 2115,1570 c 9.9,-11 20.25,-20 23,-20 2.75,0 -3.1,9 -13,20 -9.9,11 -20.25,20 -23,20 -2.75,0 3.1,-9 13,-20"
         style="fill:#db000d;fill-opacity:1;fill-rule:nonzero;stroke:#000000;stroke-opacity:1;stroke-width:16.8;stroke-miterlimit:4;stroke-dasharray:none"
         id="path70"
         inkscape:connector-curvature="0" /><path
         d="m 1960.63,1536 c -12.26,-13 -18.5,-26.52 -13.63,-29.5 5.1,-3.12 16.7,7.5 26.78,24.5 20.74,35 16.61,36.57 -13.15,5"
         style="fill:#db000d;fill-opacity:1;fill-rule:nonzero;stroke:#000000;stroke-opacity:1;stroke-width:16.8;stroke-miterlimit:4;stroke-dasharray:none"
         id="path72"
         inkscape:connector-curvature="0" /><path
         d="m 1815,1514 c -9.15,-14 -11.92,-22.89 -6,-19.27 12,7.34 34.62,45.27 27,45.27 -2.15,0 -11.85,-12 -21,-26"
         style="fill:#db000d;fill-opacity:1;fill-rule:nonzero;stroke:#000000;stroke-opacity:1;stroke-width:16.8;stroke-miterlimit:4;stroke-dasharray:none"
         id="path74"
         inkscape:connector-curvature="0" /><path
         d="m 1900.42,1525 c -6.63,-8 -16.38,-12.67 -20.92,-10 -4.43,2.61 -11.85,-0.5 -15.5,-6.5 -4.85,-7.96 -3,-9.04 6,-3.5 9.66,5.94 11.33,3.5 6.5,-9.5 -3.71,-10 -6.5,-20.5 -6.5,-24.5 0,-3.82 -9.32,-17 -20.5,-29 -11.18,-12 -17.32,-27.23 -13.5,-33.5 4.45,-7.32 9.96,-3.5 15.16,10.5 9.64,26 35.48,27.84 42.22,3 4.08,-15 4.74,-15 5.62,0 0.53,9 -3.71,19.89 -9,23.15 -15.92,9.8 -10.92,40.85 11.09,68.85 21.21,27 20.62,36.73 -0.67,11"
         style="fill:#db000d;fill-opacity:1;fill-rule:nonzero;stroke:#000000;stroke-opacity:1;stroke-width:16.8;stroke-miterlimit:4;stroke-dasharray:none"
         id="path76"
         inkscape:connector-curvature="0" /><path
         d="m 1981,1494 c 0.63,-12 2.84,-14.21 6,-6 2.69,7 2.23,15.77 -1,19 -3.16,3.16 -5.53,-3 -5,-13"
         style="fill:#db000d;fill-opacity:1;fill-rule:nonzero;stroke:#000000;stroke-opacity:1;stroke-width:16.8;stroke-miterlimit:4;stroke-dasharray:none"
         id="path78"
         inkscape:connector-curvature="0" /><path
         d="m 1772,1478 c -6.46,-6.46 -12,-18 -12,-25 0,-10.2 5.5,-10.41 25.5,-1 20,9.41 27.23,9.2 33.5,-1 6,-9.75 9.38,-8 13.5,7 4.97,18.07 2.5,19.14 -25.5,11.08 -41,-11.79 -41.64,-11.65 -27.04,5.92 14.97,18 9.21,20.17 -7.96,3"
         style="fill:#db000d;fill-opacity:1;fill-rule:nonzero;stroke:#000000;stroke-opacity:1;stroke-width:16.8;stroke-miterlimit:4;stroke-dasharray:none"
         id="path80"
         inkscape:connector-curvature="0" /><path
         d="m 1941.43,1468 c -3.26,-56 -43.61,-106.38 -61.67,-77 -4.3,7 -9.01,7.36 -12.96,1 -7.75,-12.5 19.2,-23.29 39.2,-15.7 7.89,3 19.74,14.7 25,24.7 9.46,17.97 12,17.59 47,-7 l 37,-26 -32,28.5 c -21.94,19.54 -33.26,39.5 -36,63.5 -3.09,27 -4.36,28.83 -5.57,8"
         style="fill:#db000d;fill-opacity:1;fill-rule:nonzero;stroke:#000000;stroke-opacity:1;stroke-width:16.8;stroke-miterlimit:4;stroke-dasharray:none"
         id="path82"
         inkscape:connector-curvature="0" /><path
         d="m 1602.5,1333 c 10,-2.86 22.86,-2.86 30,0 7.08,2.83 -0.5,5 -17.5,5 -17,0 -22.42,-2.17 -12.5,-5"
         style="fill:#db000d;fill-opacity:1;fill-rule:nonzero;stroke:#000000;stroke-opacity:1;stroke-width:16.8;stroke-miterlimit:4;stroke-dasharray:none"
         id="path84"
         inkscape:connector-curvature="0" /><path
         d="m 1687.5,1223 c 12,-2.13 33,-2.13 45,0 12.5,2.22 2.5,4 -22.5,4 -25,0 -35,-1.78 -22.5,-4"
         style="fill:#db000d;fill-opacity:1;fill-rule:nonzero;stroke:#000000;stroke-opacity:1;stroke-width:16.8;stroke-miterlimit:4;stroke-dasharray:none"
         id="path86"
         inkscape:connector-curvature="0" /><path
         d="m 2572,1137.8 c -18,-4.95 -32,-9.89 -32,-11.3 0,-1.37 18,-2.27 40,-2 22,0.27 40,3.65 40,7.5 0,13.06 -15,14.88 -48,5.8"
         style="fill:#db000d;fill-opacity:1;fill-rule:nonzero;stroke:#000000;stroke-opacity:1;stroke-width:16.8;stroke-miterlimit:4;stroke-dasharray:none"
         id="path88"
         inkscape:connector-curvature="0" /><path
         d="m 2592.5,1073 c 10,-2.86 22.86,-2.86 30,0 7.08,2.83 -0.5,5 -17.5,5 -17,0 -22.42,-2.17 -12.5,-5"
         style="fill:#db000d;fill-opacity:1;fill-rule:nonzero;stroke:#000000;stroke-opacity:1;stroke-width:16.8;stroke-miterlimit:4;stroke-dasharray:none"
         id="path90"
         inkscape:connector-curvature="0" /><path
         d="m 2622.5,1043.5 c 10,-2.57 25,-2.57 35,0 9.5,2.44 1.5,4.5 -17.5,4.5 -19,0 -27,-2.06 -17.5,-4.5"
         style="fill:#db000d;fill-opacity:1;fill-rule:nonzero;stroke:#000000;stroke-opacity:1;stroke-width:16.8;stroke-miterlimit:4;stroke-dasharray:none"
         id="path92"
         inkscape:connector-curvature="0" /><path
         d="m 2124,477.5 -19,-22.5 22,18.68 c 21,17.828 27.13,26.32 19,26.32 -1.6,0 -11.87,-10.5 -22,-22.5"
         style="fill:#db000d;fill-opacity:1;fill-rule:nonzero;stroke:#000000;stroke-opacity:1;stroke-width:16.8;stroke-miterlimit:4;stroke-dasharray:none"
         id="path94"
         inkscape:connector-curvature="0" /><path
         d="m 1885,220 c 3.6,-6 10,-10 16,-10 6,0 7.6,4 4,10 -3.6,6 -10,10 -16,10 -6,0 -7.6,-4 -4,-10"
         style="fill:#db000d;fill-opacity:1;fill-rule:nonzero;stroke:#000000;stroke-opacity:1;stroke-width:16.8;stroke-miterlimit:4;stroke-dasharray:none"
         id="path96"
         inkscape:connector-curvature="0" /></g></g></svg>