<?xml version="1.0" encoding="utf-8"?>
<!-- Generator: Adobe Illustrator 12.0.0, SVG Export Plug-In . SVG Version: 6.00 Build 51448)  -->
<!DOCTYPE svg PUBLIC "-//W3C//DTD SVG 1.1//EN" "http://www.w3.org/Graphics/SVG/1.1/DTD/svg11.dtd" [
	<!ENTITY ns_svg "http://www.w3.org/2000/svg">
	<!ENTITY ns_xlink "http://www.w3.org/1999/xlink">
]>
<svg  version="1.1" id="Layer_1_xA0_Image_1_" xmlns="&ns_svg;" xmlns:xlink="&ns_xlink;" width="2953" height="1772"
	 viewBox="0 0 2953 1772" overflow="visible" enable-background="new 0 0 2953 1772" xml:space="preserve">
<g id="XMLID_4_">
	<g>
		<path fill="#FFCE00" d="M2953,1476c0,98.67,0,197.33,0,296c-98.67,0-197.33,0-296,0c0-98.67,0-197.33,0-296
			C2755.67,1476,2854.33,1476,2953,1476z"/>
		<path fill="#0135AD" d="M2953,1181c0,98.33,0,196.67,0,295c-98.67,0-197.33,0-296,0c0-98.33,0-196.67,0-295
			C2755.67,1181,2854.33,1181,2953,1181z"/>
		<path fill="#FFCE00" d="M2953,886c0,98.33,0,196.67,0,295c-98.67,0-197.33,0-296,0c0-98.33,0-196.67,0-295
			C2755.67,886,2854.33,886,2953,886z"/>
		<path fill="#0135AD" d="M2953,591c0,98.33,0,196.67,0,295c-98.67,0-197.33,0-296,0c0.67-98-1.33-198.67,1-295
			C2756.33,591,2854.67,591,2953,591z"/>
		<path fill="#FFCE00" d="M2953,295c0,98.67,0,197.33,0,296c-98.33,0-196.67,0-295,0c-2.33,96.33-0.33,197-1,295c-98,0-196,0-294,0
			c-2.33,96.33-0.33,197-1,295c-98,0-196,0-294,0c-2.33,96.33-0.33,197-1,295c-98.33,0-196.67,0-295,0c0.67-98-1.33-198.67,1-295
			c98,0,196,0,294,0c0.67-98-1.33-198.67,1-295c98,0,196,0,294,0c0-98.33,0-196.67,0-295c98.33,0,196.67,0,295,0
			c0.67-98.33-1.33-199.33,1-296C2756.33,295,2854.67,295,2953,295z"/>
		<path fill="#0135AD" d="M2953,0c0,98.33,0,196.67,0,295c-98.33,0-196.67,0-295,0c-2.33,96.67-0.33,197.67-1,296
			c-98.33,0-196.67,0-295,0c0.67-98.33-1.33-199.33,1-296c98,0,196,0,294,0c0-98.33,0-196.67,0-295C2755.67,0,2854.33,0,2953,0z"/>
		<path fill="#0135AD" d="M2657,1476c0,98.67,0,197.33,0,296c-98.33,0-196.67,0-295,0c0-98.67,0-197.33,0-296
			C2460.33,1476,2558.67,1476,2657,1476z"/>
		<path fill="#FFCE00" d="M2657,1181c0,98.33,0,196.67,0,295c-98.33,0-196.67,0-295,0c0.67-98-1.33-198.67,1-295
			C2461,1181,2559,1181,2657,1181z"/>
		<path fill="#0135AD" d="M2657,886c0,98.33,0,196.67,0,295c-98,0-196,0-294,0c-2.33,96.33-0.33,197-1,295c-98,0-196,0-294,0
			c-2.33,96.67-0.33,197.67-1,296c-98.33,0-196.67,0-295,0c0-98.67,0-197.33,0-296c98.33,0,196.67,0,295,0
			c0.67-98-1.33-198.67,1-295c98,0,196,0,294,0c0.67-98-1.33-198.67,1-295C2461,886,2559,886,2657,886z"/>
		<path fill="#FFCE00" d="M2657,0c0,98.33,0,196.67,0,295c-98,0-196,0-294,0c-2.33,96.67-0.33,197.67-1,296c-98,0-196,0-294,0
			c-2.33,96.33-0.33,197-1,295c-98,0-196,0-294,0c-2.33,96.33-0.33,197-1,295c-98.33,0-196.67,0-295,0c-2.33,96.33-0.33,197-1,295
			c-98.33,0-196.67,0-295,0c0-98.33,0-196.67,0-295c98.33,0,196.67,0,295,0c0-98.33,0-196.67,0-295c98.67,0,197.33,0,296,0
			c0.67-98-1.33-198.67,1-295c98,0,196,0,294,0c0-98.67,0-197.33,0-296c98.33,0,196.67,0,295,0c0-98.33,0-196.67,0-295
			C2460.33,0,2558.67,0,2657,0z"/>
		<path fill="#FFCE00" d="M2362,1476c0,98.67,0,197.33,0,296c-98.33,0-196.67,0-295,0c0.67-98.33-1.33-199.33,1-296
			C2166,1476,2264,1476,2362,1476z"/>
		<path fill="#0135AD" d="M2362,591c0,98.33,0,196.67,0,295c-98,0-196,0-294,0c-2.33,96.33-0.33,197-1,295c-98,0-196,0-294,0
			c-2.33,96.33-0.33,197-1,295c-98.33,0-196.67,0-295,0c-2.33,96.67-0.33,197.67-1,296c-98.33,0-196.67,0-295,0
			c0-98.67,0-197.33,0-296c98.33,0,196.67,0,295,0c0.67-98-1.33-198.67,1-295c98.33,0,196.67,0,295,0c0.67-98-1.33-198.67,1-295
			c98,0,196,0,294,0c0.67-98-1.33-198.67,1-295C2166,591,2264,591,2362,591z"/>
		<path fill="#0135AD" d="M2362,0c0,98.33,0,196.67,0,295c-98.33,0-196.67,0-295,0c0-98.33,0-196.67,0-295
			C2165.33,0,2263.67,0,2362,0z"/>
		<path fill="#0135AD" d="M2067,295c0,98.67,0,197.33,0,296c-98,0-196,0-294,0c-2.33,96.33-0.33,197-1,295c-98.67,0-197.33,0-296,0
			c0.67-98-1.33-198.67,1-295c98.33,0,196.67,0,295,0c0.67-98.33-1.33-199.33,1-296C1871,295,1969,295,2067,295z"/>
		<path fill="#FFCE00" d="M2067,0c0,98.33,0,196.67,0,295c-98,0-196,0-294,0c-2.33,96.67-0.33,197.67-1,296c-98.33,0-196.67,0-295,0
			c-2.33,96.33-0.33,197-1,295c-98.33,0-196.67,0-295,0c0-98.33,0-196.67,0-295c98.33,0,196.67,0,295,0
			c0.67-98.33-1.33-199.33,1-296c98.33,0,196.67,0,295,0c0-98.33,0-196.67,0-295C1870.33,0,1968.67,0,2067,0z"/>
		<path fill="#FFCE00" d="M1772,1476c0,98.67,0,197.33,0,296c-98.67,0-197.33,0-296,0c0.67-98.33-1.33-199.33,1-296
			C1575.33,1476,1673.67,1476,1772,1476z"/>
		<path fill="#0135AD" d="M1772,0c0,98.33,0,196.67,0,295c-98.33,0-196.67,0-295,0c-2.33,96.67-0.33,197.67-1,296
			c-98.33,0-196.67,0-295,0c0.67-98.33-1.33-199.33,1-296c98,0,196,0,294,0c0-98.33,0-196.67,0-295C1574.67,0,1673.33,0,1772,0z"/>
		<path fill="#0135AD" d="M1476,886c0,98.33,0,196.67,0,295c-98.33,0-196.67,0-295,0c0-98.33,0-196.67,0-295
			C1279.33,886,1377.67,886,1476,886z"/>
		<path fill="#FFCE00" d="M1476,0c0,98.33,0,196.67,0,295c-98,0-196,0-294,0c-2.33,96.67-0.33,197.67-1,296c-98,0-196,0-294,0
			c-2.33,96.33-0.33,197-1,295c-98,0-196,0-294,0c-2.33,96.33-0.33,197-1,295c-98.67,0-197.33,0-296,0c0.67-98-1.33-198.67,1-295
			c98.33,0,196.67,0,295,0c0.67-98-1.33-198.67,1-295c98,0,196,0,294,0c0-98.67,0-197.33,0-296c98.33,0,196.67,0,295,0
			c0-98.33,0-196.67,0-295C1279.33,0,1377.67,0,1476,0z"/>
		<path fill="#FFCE00" d="M1181,1476c0,98.67,0,197.33,0,296c-98.33,0-196.67,0-295,0c0-98.67,0-197.33,0-296
			C984.33,1476,1082.67,1476,1181,1476z"/>
		<path fill="#0135AD" d="M1181,1181c0,98.33,0,196.67,0,295c-98.33,0-196.67,0-295,0c0.67-98-1.33-198.67,1-295
			C985,1181,1083,1181,1181,1181z"/>
		<path fill="#FFCE00" d="M1181,886c0,98.33,0,196.67,0,295c-98,0-196,0-294,0c-2.33,96.33-0.33,197-1,295c-98,0-196,0-294,0
			c-2.33,96.67-0.33,197.67-1,296c-98.67,0-197.33,0-296,0c0.67-98.33-1.33-199.33,1-296c98.33,0,196.67,0,295,0
			c0.67-98-1.33-198.67,1-295c98,0,196,0,294,0c0.67-98-1.33-198.67,1-295C985,886,1083,886,1181,886z"/>
		<path fill="#0135AD" d="M1181,591c0,98.33,0,196.67,0,295c-98,0-196,0-294,0c-2.33,96.33-0.33,197-1,295c-98,0-196,0-294,0
			c-2.33,96.33-0.33,197-1,295c-98.33,0-196.67,0-295,0c-2.33,96.67-0.33,197.67-1,296c-98.33,0-196.67,0-295,0
			c0-98.67,0-197.33,0-296c98.33,0,196.67,0,295,0c0-98.33,0-196.67,0-295c98.67,0,197.33,0,296,0c0.67-98-1.33-198.67,1-295
			c98,0,196,0,294,0c0.67-98-1.33-198.67,1-295C985,591,1083,591,1181,591z"/>
		<path fill="#0135AD" d="M1181,0c0,98.33,0,196.67,0,295c-98.33,0-196.67,0-295,0c0-98.33,0-196.67,0-295
			C984.33,0,1082.67,0,1181,0z"/>
		<path fill="#0135AD" d="M886,1476c0,98.67,0,197.33,0,296c-98.33,0-196.67,0-295,0c0.67-98.33-1.33-199.33,1-296
			C690,1476,788,1476,886,1476z"/>
		<path fill="#0135AD" d="M886,295c0,98.67,0,197.33,0,296c-98,0-196,0-294,0c-2.33,96.33-0.33,197-1,295c-98.33,0-196.67,0-295,0
			c-2.33,96.33-0.33,197-1,295c-98.33,0-196.67,0-295,0c0-98.33,0-196.67,0-295c98.33,0,196.67,0,295,0c0.67-98-1.33-198.67,1-295
			c98.33,0,196.67,0,295,0c0-98.67,0-197.33,0-296C689.33,295,787.67,295,886,295z"/>
		<path fill="#FFCE00" d="M886,0c0,98.33,0,196.67,0,295c-98.33,0-196.67,0-295,0c0-98.33,0-196.67,0-295C689.33,0,787.67,0,886,0z"
			/>
		<path fill="#FFCE00" d="M591,295c0,98.67,0,197.33,0,296c-98.33,0-196.67,0-295,0c-2.33,96.33-0.33,197-1,295
			c-98.33,0-196.67,0-295,0c0-98.33,0-196.67,0-295c98.33,0,196.67,0,295,0c0-98.67,0-197.33,0-296C393.67,295,492.33,295,591,295z"
			/>
		<path fill="#0135AD" d="M591,0c0,98.33,0,196.67,0,295c-98.67,0-197.33,0-296,0c0-98.33,0-196.67,0-295C393.67,0,492.33,0,591,0z"
			/>
		<path fill="#FFCE00" d="M295,1181c0,98.33,0,196.67,0,295c-98.33,0-196.67,0-295,0c0-98.33,0-196.67,0-295
			C98.33,1181,196.67,1181,295,1181z"/>
		<path fill="#0135AD" d="M295,295c0,98.67,0,197.33,0,296c-98.33,0-196.67,0-295,0c0-98.67,0-197.33,0-296
			C98.33,295,196.67,295,295,295z"/>
		<path fill="#FFCE00" d="M295,0c0,98.33,0,196.67,0,295c-98.33,0-196.67,0-295,0C0,196.67,0,98.33,0,0C98.33,0,196.67,0,295,0z"/>
	</g>
	<g>
	</g>
</g>
</svg>
